# xmcd CD database file
#
# Track frame offsets:
#	150
#	16509
#	30303
#	44871
#	57628
#	74982
#	91683
#	103008
#	120150
#	135729
#	152601
#	162162
#	178615
#	201009
#	215925
#	234964
#	242266
#	259703
#
# Disc length: 3694 seconds
#
# Revision: 0
# Processed by: cddbd v1.5.2PL0 Copyright (c) Steve Scherf et al.
# Submitted via: ACXtractor (MTCDDB.DLL V2003.12.21)
#
DISCID=f00e6c12
DTITLE=Foster and Allen - The Essential
DYEAR=2007
DGENRE=Country
TTITLE0=Maggie
TTITLE1=The Wild Rover
TTITLE2=Ben Bulben of Sligo
TTITLE3=The Bluebell Polka
TTITLE4=Nancy Miles
TTITLE5=I'll take You Home Again Kathleen
TTITLE6=Seven Wonders of Fore
TTITLE7=Courtin' in the Kitchen
TTITLE8=The Oslo Waltz
TTITLE9=Molly My Lovely Molly
TTITLE10=Jig- Shandon Bells
TTITLE11=If Those Lips Could Only speak
TTITLE12=The Blacksmith
TTITLE13=The Blind
TTITLE14=Green Willow
TTITLE15=Jig- Cock of the North
TTITLE16=The Gypsey Rover
TTITLE17=The Mountains of Mourne
EXTD=ID3G:   2 YEAR: 2007
EXTT0=
EXTT1=
EXTT2=
EXTT3=
EXTT4=
EXTT5=
EXTT6=
EXTT7=
EXTT8=
EXTT9=
EXTT10=
EXTT11=
EXTT12=
EXTT13=
EXTT14=
EXTT15=
EXTT16=
EXTT17=
PLAYORDER=
